<?xml version="1.0" encoding="utf-8"?>
<svg xmlns="http://www.w3.org/2000/svg" xmlns:xlink="http://www.w3.org/1999/xlink" width="600" height="400" viewBox="0 0 2400 1600">
<defs>
  <clipPath id="clip1100">
    <rect x="0" y="0" width="2000" height="2000"/>
  </clipPath>
</defs>
<defs>
  <clipPath id="clip1101">
    <rect x="0" y="0" width="2400" height="1600"/>
  </clipPath>
</defs>
<polygon clip-path="url(#clip1101)" points="
0,1600 2400,1600 2400,0 0,0 
  " fill="#ffffff" fill-rule="evenodd" fill-opacity="1"/>
<defs>
  <clipPath id="clip1102">
    <rect x="480" y="0" width="1681" height="1600"/>
  </clipPath>
</defs>
<polygon clip-path="url(#clip1101)" points="
224.386,1440.48 2321.26,1440.48 2321.26,47.2441 224.386,47.2441 
  " fill="#ffffff" fill-rule="evenodd" fill-opacity="1"/>
<defs>
  <clipPath id="clip1103">
    <rect x="224" y="47" width="2098" height="1394"/>
  </clipPath>
</defs>
<polyline clip-path="url(#clip1103)" style="stroke:#000000; stroke-width:2; stroke-opacity:0.1; fill:none" points="
  263.75,1440.48 263.75,47.2441 
  "/>
<polyline clip-path="url(#clip1103)" style="stroke:#000000; stroke-width:2; stroke-opacity:0.1; fill:none" points="
  763.291,1440.48 763.291,47.2441 
  "/>
<polyline clip-path="url(#clip1103)" style="stroke:#000000; stroke-width:2; stroke-opacity:0.1; fill:none" points="
  1262.83,1440.48 1262.83,47.2441 
  "/>
<polyline clip-path="url(#clip1103)" style="stroke:#000000; stroke-width:2; stroke-opacity:0.1; fill:none" points="
  1762.37,1440.48 1762.37,47.2441 
  "/>
<polyline clip-path="url(#clip1103)" style="stroke:#000000; stroke-width:2; stroke-opacity:0.1; fill:none" points="
  2261.91,1440.48 2261.91,47.2441 
  "/>
<polyline clip-path="url(#clip1103)" style="stroke:#000000; stroke-width:2; stroke-opacity:0.1; fill:none" points="
  224.386,1440.48 2321.26,1440.48 
  "/>
<polyline clip-path="url(#clip1103)" style="stroke:#000000; stroke-width:2; stroke-opacity:0.1; fill:none" points="
  224.386,1092.17 2321.26,1092.17 
  "/>
<polyline clip-path="url(#clip1103)" style="stroke:#000000; stroke-width:2; stroke-opacity:0.1; fill:none" points="
  224.386,743.863 2321.26,743.863 
  "/>
<polyline clip-path="url(#clip1103)" style="stroke:#000000; stroke-width:2; stroke-opacity:0.1; fill:none" points="
  224.386,395.554 2321.26,395.554 
  "/>
<polyline clip-path="url(#clip1103)" style="stroke:#000000; stroke-width:2; stroke-opacity:0.1; fill:none" points="
  224.386,47.2441 2321.26,47.2441 
  "/>
<polyline clip-path="url(#clip1101)" style="stroke:#000000; stroke-width:4; stroke-opacity:1; fill:none" points="
  224.386,1440.48 2321.26,1440.48 
  "/>
<polyline clip-path="url(#clip1101)" style="stroke:#000000; stroke-width:4; stroke-opacity:1; fill:none" points="
  224.386,1440.48 224.386,47.2441 
  "/>
<polyline clip-path="url(#clip1101)" style="stroke:#000000; stroke-width:4; stroke-opacity:1; fill:none" points="
  263.75,1440.48 263.75,1419.58 
  "/>
<polyline clip-path="url(#clip1101)" style="stroke:#000000; stroke-width:4; stroke-opacity:1; fill:none" points="
  763.291,1440.48 763.291,1419.58 
  "/>
<polyline clip-path="url(#clip1101)" style="stroke:#000000; stroke-width:4; stroke-opacity:1; fill:none" points="
  1262.83,1440.48 1262.83,1419.58 
  "/>
<polyline clip-path="url(#clip1101)" style="stroke:#000000; stroke-width:4; stroke-opacity:1; fill:none" points="
  1762.37,1440.48 1762.37,1419.58 
  "/>
<polyline clip-path="url(#clip1101)" style="stroke:#000000; stroke-width:4; stroke-opacity:1; fill:none" points="
  2261.91,1440.48 2261.91,1419.58 
  "/>
<polyline clip-path="url(#clip1101)" style="stroke:#000000; stroke-width:4; stroke-opacity:1; fill:none" points="
  224.386,1440.48 255.839,1440.48 
  "/>
<polyline clip-path="url(#clip1101)" style="stroke:#000000; stroke-width:4; stroke-opacity:1; fill:none" points="
  224.386,1092.17 255.839,1092.17 
  "/>
<polyline clip-path="url(#clip1101)" style="stroke:#000000; stroke-width:4; stroke-opacity:1; fill:none" points="
  224.386,743.863 255.839,743.863 
  "/>
<polyline clip-path="url(#clip1101)" style="stroke:#000000; stroke-width:4; stroke-opacity:1; fill:none" points="
  224.386,395.554 255.839,395.554 
  "/>
<polyline clip-path="url(#clip1101)" style="stroke:#000000; stroke-width:4; stroke-opacity:1; fill:none" points="
  224.386,47.2441 255.839,47.2441 
  "/>
<g clip-path="url(#clip1101)">
<text style="fill:#000000; fill-opacity:1; font-family:Arial,Helvetica Neue,Helvetica,sans-serif; font-size:48px; text-anchor:middle;" transform="rotate(0, 263.75, 1494.48)" x="263.75" y="1494.48">0</text>
</g>
<g clip-path="url(#clip1101)">
<text style="fill:#000000; fill-opacity:1; font-family:Arial,Helvetica Neue,Helvetica,sans-serif; font-size:48px; text-anchor:middle;" transform="rotate(0, 763.291, 1494.48)" x="763.291" y="1494.48">25</text>
</g>
<g clip-path="url(#clip1101)">
<text style="fill:#000000; fill-opacity:1; font-family:Arial,Helvetica Neue,Helvetica,sans-serif; font-size:48px; text-anchor:middle;" transform="rotate(0, 1262.83, 1494.48)" x="1262.83" y="1494.48">50</text>
</g>
<g clip-path="url(#clip1101)">
<text style="fill:#000000; fill-opacity:1; font-family:Arial,Helvetica Neue,Helvetica,sans-serif; font-size:48px; text-anchor:middle;" transform="rotate(0, 1762.37, 1494.48)" x="1762.37" y="1494.48">75</text>
</g>
<g clip-path="url(#clip1101)">
<text style="fill:#000000; fill-opacity:1; font-family:Arial,Helvetica Neue,Helvetica,sans-serif; font-size:48px; text-anchor:middle;" transform="rotate(0, 2261.91, 1494.48)" x="2261.91" y="1494.48">100</text>
</g>
<g clip-path="url(#clip1101)">
<text style="fill:#000000; fill-opacity:1; font-family:Arial,Helvetica Neue,Helvetica,sans-serif; font-size:48px; text-anchor:end;" transform="rotate(0, 200.386, 1457.98)" x="200.386" y="1457.98">0.0</text>
</g>
<g clip-path="url(#clip1101)">
<text style="fill:#000000; fill-opacity:1; font-family:Arial,Helvetica Neue,Helvetica,sans-serif; font-size:48px; text-anchor:end;" transform="rotate(0, 200.386, 1109.67)" x="200.386" y="1109.67">0.5</text>
</g>
<g clip-path="url(#clip1101)">
<text style="fill:#000000; fill-opacity:1; font-family:Arial,Helvetica Neue,Helvetica,sans-serif; font-size:48px; text-anchor:end;" transform="rotate(0, 200.386, 761.363)" x="200.386" y="761.363">1.0</text>
</g>
<g clip-path="url(#clip1101)">
<text style="fill:#000000; fill-opacity:1; font-family:Arial,Helvetica Neue,Helvetica,sans-serif; font-size:48px; text-anchor:end;" transform="rotate(0, 200.386, 413.054)" x="200.386" y="413.054">1.5</text>
</g>
<g clip-path="url(#clip1101)">
<text style="fill:#000000; fill-opacity:1; font-family:Arial,Helvetica Neue,Helvetica,sans-serif; font-size:48px; text-anchor:end;" transform="rotate(0, 200.386, 64.7441)" x="200.386" y="64.7441">2.0</text>
</g>
<g clip-path="url(#clip1101)">
<text style="fill:#000000; fill-opacity:1; font-family:Arial,Helvetica Neue,Helvetica,sans-serif; font-size:66px; text-anchor:middle;" transform="rotate(0, 1272.82, 1590.4)" x="1272.82" y="1590.4">n</text>
</g>
<g clip-path="url(#clip1101)">
<text style="fill:#000000; fill-opacity:1; font-family:Arial,Helvetica Neue,Helvetica,sans-serif; font-size:66px; text-anchor:middle;" transform="rotate(-90, 57.6, 743.863)" x="57.6" y="743.863">q</text>
</g>
<polyline clip-path="url(#clip1103)" style="stroke:#009af9; stroke-width:4; stroke-opacity:1; fill:none" points="
  283.732,743.863 303.713,47.2441 323.695,395.554 343.677,976.07 363.658,859.967 383.64,186.568 403.622,465.216 423.603,998.185 443.585,880.699 463.566,221.399 
  483.548,486.888 503.53,1006.23 523.511,889.181 543.493,237.028 563.475,497.367 583.456,1010.36 603.438,893.775 623.42,245.877 643.401,503.531 663.383,1012.88 
  683.365,896.652 703.346,251.566 723.328,507.588 743.309,1014.57 763.291,898.623 783.273,255.529 803.254,510.458 823.236,1015.78 843.218,900.056 863.199,258.447 
  883.181,512.596 903.163,1016.69 923.144,901.146 943.126,260.686 963.108,514.25 983.089,1017.41 1003.07,902.002 1023.05,262.458 1043.03,515.567 1063.02,1017.98 
  1083,902.692 1102.98,263.894 1122.96,516.642 1142.94,1018.45 1162.92,903.261 1182.91,265.083 1202.89,517.534 1222.87,1018.84 1242.85,903.737 1262.83,266.082 
  1282.81,518.288 1302.8,1019.17 1322.78,904.142 1342.76,266.934 1362.74,518.932 1382.72,1019.45 1402.7,904.49 1422.69,267.67 1442.67,519.49 1462.65,1019.7 
  1482.63,904.793 1502.61,268.311 1522.59,519.977 1542.58,1019.91 1562.56,905.059 1582.54,268.874 1602.52,520.406 1622.5,1020.1 1642.48,905.294 1662.47,269.374 
  1682.45,520.787 1702.43,1020.27 1722.41,905.503 1742.39,269.819 1762.37,521.127 1782.35,1020.42 1802.34,905.691 1822.32,270.219 1842.3,521.434 1862.28,1020.56 
  1882.26,905.86 1902.24,270.58 1922.23,521.71 1942.21,1020.68 1962.19,906.013 1982.17,270.908 2002.15,521.962 2022.13,1020.79 2042.12,906.153 2062.1,271.207 
  2082.08,522.191 2102.06,1020.9 2122.04,906.281 2142.02,271.48 2162.01,522.401 2181.99,1020.99 2201.97,906.398 2221.95,271.731 2241.93,522.594 2261.91,1021.08 
  
  "/>
</svg>
